<svg xmlns="http://www.w3.org/2000/svg" width="126.494" height="126.5" viewBox="0 0 126.494 126.5">
  <path id="iconmonstr-party-6" d="M92.325,52.771a2.636,2.636,0,0,1-.759,3.647L79.97,64.03a2.6,2.6,0,0,1-1.444.432,2.633,2.633,0,0,1-1.449-4.833l11.6-7.616a2.626,2.626,0,0,1,3.647.759m-32.9-13.678L65.28,26.523a2.633,2.633,0,1,1,4.775,2.219L64.2,41.318a2.639,2.639,0,0,1-2.388,1.518L60.7,42.588a2.625,2.625,0,0,1-1.276-3.495M45.594,42.325c7.258-13.978,7.822-26.9,1.676-38.4a2.636,2.636,0,0,1,4.654-2.477c7.01,13.124,6.457,27.693-1.655,43.31a2.634,2.634,0,1,1-4.675-2.43m80.9,29.127a2.636,2.636,0,0,1-3.537,2.477c-14.8-5.418-27.693-4.327-38.324,3.22a2.63,2.63,0,0,1-3.052-4.285c12.128-8.628,26.665-9.93,43.184-3.885a2.632,2.632,0,0,1,1.729,2.472M39.611,57.7l15.1,39.621-11.849,5.081L28.353,62.812l4.1-11.469L39.611,57.7Zm19.95,37.549L48.134,65.279,74.62,88.8Zm-43.59,2.208,5.213,14.226L9.025,116.9Zm9.609-26.9,12.429,33.918-11.97,5.129L18.744,89.7,25.58,70.566ZM0,126.5,84.318,90.379l-54.2-48.159L0,126.5ZM107.842,44.122l2.909-3.658,1.481,4.433,4.38,1.629-3.758,2.783-.2,4.67-3.811-2.72-4.5,1.254,1.413-4.459-2.588-3.9,4.675-.037Zm-7.295,4.665L97.179,59.428l10.758-2.994,9.087,6.483.469-11.148,8.981-6.631-10.463-3.9L112.47,30.66,105.538,39.4l-11.164.09ZM89.125,26.681c3.126-.232,4.87-.743,5.661-1.66.928-1.075,1.191-3.41.87-7.553a2.634,2.634,0,0,1,5.25-.437c.332,4.248.311,8.539-2.119,11.364-2.261,2.63-5.956,3.173-9.277,3.41-3.7.274-3.795,1.281-4.08,4.628-.3,3.531-.8,9.192-9.7,10.188-5.36.606-7.553,1.739-7.258,10.31.042,1.449-1.091,1.713-2.551,1.713h-.084c-1.418,0-2.588-.116-2.635-1.534-.258-7.7,1.007-13.994,11.938-15.217,4.607-.522,4.744-2.129,5.039-5.65.285-3.347.764-8.96,8.945-9.561m27.746-16.065a4.341,4.341,0,1,1-4.343,4.343,4.346,4.346,0,0,1,4.343-4.343m0,13.952a9.609,9.609,0,1,0-9.614-9.609,9.614,9.614,0,0,0,9.614,9.609M72.353,5.266a5.266,5.266,0,1,1-5.271,5.266,5.275,5.275,0,0,1,5.271-5.266m0,15.8A10.534,10.534,0,1,0,61.812,10.531,10.543,10.543,0,0,0,72.353,21.067" transform="translate(-0.001)" fill="#fff" fill-rule="evenodd"/>
</svg>
