<svg xmlns="http://www.w3.org/2000/svg" width="1920" height="1001.939" viewBox="0 0 1920 1001.939">
  <g id="Grupo_17" data-name="Grupo 17" transform="translate(0 -975)">
    <rect id="Recurso_1_2x-100" data-name="Recurso 1@2x-100" width="1920" height="748" transform="translate(0 1055)" fill="#fff"/>
    <g id="Capa_2" data-name="Capa 2" transform="translate(559.018 975)">
      <g id="Capa_1" data-name="Capa 1" transform="translate(-0.018)">
        <path id="Trazado_1" data-name="Trazado 1" d="M307.569,251.361c16.368,0-12.075,28.353-15.7,33.094a145.837,145.837,0,0,1-41.144,30.277c-12.88,5.858-26.833,8.452-39.892,14.266-2.773.671-6.35,4.159-9.3,4.025-5.188,20.438-9.749,41.1-13.73,61.85,1.431-2.325,2.817-4.472,4.025-6.8A133.538,133.538,0,0,1,238.385,340.8c4.875-2.728,33.273-19.454,36.359-15.563s-4.472,15.026-6.216,19.812a128.707,128.707,0,0,1-51.117,53.666c-7.871,4.472-15.7,8.944-23.881,12.656a94.522,94.522,0,0,1-9.57,4.919q-4.472,25.357-7.379,50.938a2.191,2.191,0,0,1,0,1.521c-.894,7.6-1.7,15.16-2.46,22.763a102.547,102.547,0,0,1,27.1-35.777,161.529,161.529,0,0,1,35.33-22.361,186.042,186.042,0,0,1,32.2-11c14.356-4.472,18.515-1.565,8.273,11.225a273.965,273.965,0,0,1-74.685,65.875c-9.794,5.143-18.962,14.266-30.187,15.429-.268,3.13-.492,6.216-.671,9.347q-1.565,29.7-2.281,59.569v1.7h-5.456v-2.013c.76-38.147,3.309-76.295,7.737-114.174a92.521,92.521,0,0,1-16.323-9.928,87.476,87.476,0,0,1-24.91-23.389c-6.574-9.257-13.819-17.888-19.543-27.861-2.46-5.858-15.071-25.849-5.232-28.488,2.862-.4,5.277,1.923,7.737,3.13a204.791,204.791,0,0,1,26.43,19.141,102.86,102.86,0,0,1,32.96,46.868l1.073,3.22q4.472-32.691,10.6-65.025h-.716a3.309,3.309,0,0,1-2.191-1.342,2.193,2.193,0,0,1-1.163-.581c-18.2-16.413-39.757-28.935-55.589-47.986-6.306-5.9-47.539-59.3-16.815-46.6,32.6,13.864,64.354,37.208,76.653,71.554.492,1.386,1.834,5.1,2.817,8.944,4.07-19.409,8.944-38.773,13.864-58.138a2.281,2.281,0,0,1-2.326-1.521l-.268-.85c-26.207-18.2-42.933-48.612-53.442-78.173-2.325-8.944-7.871-26.833,0-33.9,7.871-.671,17.889,13.148,24.015,18.157,19.99,20.482,35.062,47.36,37.521,76.027q5.68-19.409,12.119-38.55l.268-.85a2.549,2.549,0,0,1-.716-.671c-8.5-32.647-8.229-68.916,8.005-99.282,5.143-9.526,17.889-29.65,27.548-33.362,6.35,1.834,4.472,11.359,5.143,16.5a193.15,193.15,0,0,1-9.57,67.082c-1.476,5.59-17.576,45.124-25.491,50.8-.671,6.44-6.44,19.409-6.619,22.361-3.98,12.567-7.647,25.178-11.136,37.879,3.935-4.919,8.095-9.347,9.7-11.4,23.747-27.191,56.886-43.425,91.5-51.922ZM222.6,248.409h0c22.361-36,35.375-79.515,30.321-122.045-31.305,29.516-41.233,75.356-31.305,116.276l1.073,5.277v.4Zm6.037,113.011h0c11.315-9.615,22.361-19.5,34.525-28.04-31.752,14.043-58.138,36.269-72.941,67.664a44.719,44.719,0,0,0,3.444-3.935,381.777,381.777,0,0,1,34.972-35.777Zm47.226,64.309h0c-44.051,9.481-91.9,36.448-102.412,83.5,9.392-2.818,17.441-9.57,25.8-14.311a259.921,259.921,0,0,0,76.608-69.184Zm-9.436-88.191h0a383.619,383.619,0,0,0-58.451,51.519c-5.143,5.814-10.688,11.315-15.518,17.4C224.611,390.847,251.8,370.678,266.425,337.539Zm-63.862-30.187h0l.313-1.029a2.326,2.326,0,0,1-.984-2.147,105.408,105.408,0,0,0-3.533-28.488,142.124,142.124,0,0,0-47.4-68.513,389.881,389.881,0,0,1,31.305,54.873c6.35,15.339,14.937,29.65,20.527,45.3Zm-16.458-13.416h0a98.4,98.4,0,0,0,8.944,8.408c-3.354-8.05-7.334-15.787-11.136-23.613C177.7,264.956,171.571,251.093,164.1,237.9c-4.875-8.542-10.51-16.636-15.831-24.91a22.8,22.8,0,0,0-1.476-2.37c0,30.589,20.885,60.419,39.355,83.316Zm-1.163,87.922h0v-.313l-1.207-.447c-6.127-42.53-43.782-72.449-82.019-87.028,12.969,30.008,37.611,53.666,63.773,72.538,6.216,4.472,11.9,9.839,17.889,14.758a2.055,2.055,0,0,1,.313.313h.537a2.1,2.1,0,0,1,.894.09Z" transform="translate(335.291 416.241)" fill="#c4a890" fill-rule="evenodd"/>
        <path id="Trazado_2" data-name="Trazado 2" d="M478.329,380.356c2.728,4.025-2.683,9.347-4.472,12.88-15.652,23.345-41.68,38.326-68.111,46.466a229.29,229.29,0,0,1-34.167,7.513c-2.728,0-7.826,2.594-10.42,1.252q-4.472,18.38-9.57,36.672a130.1,130.1,0,0,1,15.25-7.066c32.6-10.823,69.05-8.944,101.7.581,8.5,6.306-14.669,17.173-19.677,18.381a173.874,173.874,0,0,1-37.074,8.139v.268a122.179,122.179,0,0,1-63.236,65.114,150.621,150.621,0,0,1-21.153,7.916,2.639,2.639,0,0,1-2.147-.492c-14.8,51.609-29.2,103.351-39.534,155.988C273.55,796.31,263.353,859.591,265.1,923.274c.492,25.536.8,51.206,3.175,76.653v2.013h-5.009v-2.013c-1.476-17.441-2.37-34.927-2.817-52.414-.939-25.089-.8-50.177.626-75.177l-.447-.224a321.991,321.991,0,0,0-27.951-54.873h-.716c-2.057-.76-2.415-2.549-2.236-4.472l-3.935-5.859a19.59,19.59,0,0,1-3.354-4.74q-6.082-8.676-12.746-16.9a2.415,2.415,0,0,1-1.923-.8l-.313-.4a274.232,274.232,0,0,1-74.774-5.1c-7.782-.536-77.592-22.047-51.3-31.931,35.777-8.363,75.624-8.408,106.437,13.148a415.329,415.329,0,0,0-46.913-42.262h-.447c-32.289-5.411-64.8-21.377-83.406-49.194-2.46-4.2-10.286-14.177-2.012-16.189,27.414,3.309,56.26,14.311,72.449,37.834,2.594,4.249,12.075,14.579,12.343,20.259l.626.358a368.822,368.822,0,0,1,67.619,64.488,154.963,154.963,0,0,1-9.7-29.382,208.98,208.98,0,0,1-5.009-49.462c-1.744-28.756,19.633-1.118,26.117,8.5,15.339,23.3,18.828,51.519,17.889,78.8a233.854,233.854,0,0,1-2.191,28.219c3.578,5.322,7.021,10.733,10.375,16.189A327.46,327.46,0,0,1,261.7,860.4c1.431-19.633,3.757-39.266,6.977-58.764,3.13-23.747,7.245-47.271,12.075-70.615a2.37,2.37,0,0,1-.581-.85c1.3-16.547,2.012-33.139,2.012-49.775a25.736,25.736,0,0,0-3.265,0,151.65,151.65,0,0,1-89.443-40.249c-4.741-5.367-22.942-18.872-18.336-26.207,5.68-3.22,21.735,1.878,28.756,2.728,27.459,6.485,61.626,19.812,79.873,42.083l2.37,3.8a517,517,0,0,0-4.472-55.723,35.782,35.782,0,0,1-5.367.537c-39-3.309-77.458-15.831-108.226-40.249-8.184-6.261-35.777-31.305-32.244-41.367,4.07-4.07,11.762,0,16.9-.224a215.381,215.381,0,0,1,66.59,19.5A112.067,112.067,0,0,1,236.7,557.676a130.631,130.631,0,0,1,32.513,26.609c1.073,1.7,3.712,4.83,6.172,8.139-.894-5.411-1.923-10.778-3.041-16.144-5.009-29.65-10.823-59.256-18.157-88.414-14.8,11.717-37.342,11.717-55.723,11.941-32.155,1.386-180.183-50.446-64.578-45.929,38.863,4.114,79.6,5.814,114.755,24.731a36.423,36.423,0,0,0,3.622,1.7q-4.472-17.352-9.839-34.525c-2.5-7.6-5.1-15.205-7.782-22.719a333.4,333.4,0,0,1-68.6,6.8c-12.164,2.1-129.469-15.742-77.234-32.736a167.972,167.972,0,0,1,60.553-8.676c29.7,1.3,57.691,12.522,82.735,28.085q-9.526-26.028-20.348-51.43a3.085,3.085,0,0,1-.581-.492,2.638,2.638,0,0,1-.537-2.147c-2.012-4.472-4.07-9.392-6.127-14.087-2.773,3.13-14.982.85-18.246,1.3-26.43-.581-53.666.626-78.933-7.6a151.072,151.072,0,0,1-34.793-14.4c-7.871-3.757-27.683-20.482-9.213-23.568a409.7,409.7,0,0,1,65.428-.671,102.547,102.547,0,0,1,62.118,23.837c1.252,1.252,4.07,3.309,6.887,5.724-10.286-22.674-21.019-45.124-31.931-67.529h-.268a4.472,4.472,0,0,1-1.3-3.086h0a2.281,2.281,0,0,1-2.817-1.207,136.133,136.133,0,0,1-82.556,22.9A114.711,114.711,0,0,1,36.392,272.8C30.176,269.536,7.9,257.953,21.1,251.2c42.262-11.046,98.7-22.361,138.279,1.252l-21.914-44.721a2.5,2.5,0,0,1-1.476.671,64.226,64.226,0,0,1-7.2,0c-35.777-1.834-74.6-8.631-100.668-35.062-7.066-7.916-19.1-19.722-14.087-31.305,7.424-5.456,30.142,4.919,39.444,6.574,28,6.127,54.337,17.889,74.1,38.416q-4.875-10.2-9.749-20.438c-6.4-14.221-12.88-28.443-18.962-42.843C72.035,99.237,49.674,67.037,46.275,29.829,46.186,22.361,42.3,3.98,51.016,0,63.985,3.846,79.772,28.309,87.061,39.8,101.372,63.191,104.95,92.931,102,119.272a2.818,2.818,0,0,1,.8,1.073c5.1,11.762,10.465,23.389,15.653,35.062,3.175,6.8,6.4,13.416,9.66,20.438a152.054,152.054,0,0,1-2.46-46.153c4.472-28.4,15.474-58.719,36.314-78.8,10.375-.984,7.692,23.658,8.944,30.679,3.622,39.176-16.368,74.953-35.2,107.913a5.635,5.635,0,0,1,.313,2.817q13.014,26.833,26.207,53.666c-2.281-27.683,2.191-55.9,17.173-79.738A114.04,114.04,0,0,1,215.9,126.875c3.578-2.191,7.2-5.993,11.672-5.5,7.96,3.309-1.029,32.065-2.326,39.444-1.655,4.74-3.354,9.615-5.143,14.445,7.424,32.244,6.529,66.367-7.155,96.867-1.789,4.114-13.416,31.931-19.767,38.55,6.887,14.937,13.416,29.919,20.08,44.99a241.9,241.9,0,0,1,57.512-96.285c5.367-4.025,20.125-26.028,25.67-14.713,4.919,25.983-10.42,51.251-24.284,72.136-14.311,21.556-33.9,33.9-55.5,46.823,11.583,27.593,22.361,55.455,31.305,83.853-3.265-27.593-1.431-55.9,11.18-80.946,4.919-8.944,18.962-45.795,29.427-44.319a22.361,22.361,0,0,1,4.83,11.583,3.13,3.13,0,0,1,3.8-.4c28.04,9.347,48.21,33.72,58.138,61.045a101.831,101.831,0,0,1,6.574,27.951c6.842-29.606,12.746-59.39,17.039-89.443-23.032-13.416-37.611-37.387-50.133-60.15-4.114-6.8-24.91-50.982-9.436-50.4,22.361,16.681,47.852,43.2,58.138,69.139a108.9,108.9,0,0,1,4.472,16.9c.85-7.468,1.565-14.937,2.191-22.361,1.073-9.839,2.1-19.677,2.907-29.561a2.326,2.326,0,0,1-.716-2.817c-6.127-27.727-7.871-56.93,2.817-83.763,3-6.306,16.592-45.213,25.178-30.008,11.225,33.765,13.416,76.608-7.424,107.331-2.907,3.041-10.331,15.653-14.847,13.148-1.118,13.819-2.549,27.638-4.2,41.457q-1.431,14.624-3.354,29.2a2.772,2.772,0,0,1-.358,2.638c-.537,3.936-1.073,7.871-1.7,11.762,3.041-7.111,6.708-14.221,8.184-17.218,15.295-26.833,38.595-52.056,67.082-64.488,5.769,2.683,1.252,11.315.447,15.966-6.261,21.645-20.974,39.131-35.777,55.723-3.309,4.472-36.716,33.675-43.872,33-3.8,21.422-8.318,42.664-13.416,63.818a107.331,107.331,0,0,1,27.638-28c18.917-13.864,42.307-18.515,64.8-22.674C462.364,381.206,475.02,377.673,478.329,380.356Zm-47.986,116.5h0c11.851-3.175,24.865-5.545,34.078-14.311-36.18-8.944-81.661-11.985-113.861,9.7,11.851,6.037,25.715,7.424,38.863,8.408a147.98,147.98,0,0,0,40.92-3.8Zm-14.579-65.964h0c22.853-9.749,44.99-23.926,57.333-46.287-22.763,3.086-46.108,6.887-66.814,17.352a98.924,98.924,0,0,0-41.457,41.054,249.32,249.32,0,0,0,50.938-12.119Zm-7.2-197.266h0c10.6-24.6,10.733-53.666,4.472-79.515a373.6,373.6,0,0,1-8.944,68.245A202.233,202.233,0,0,1,394.3,253.3a26.833,26.833,0,0,0,5.367-5.545,67.081,67.081,0,0,0,8.944-14.132ZM390.675,248.07h0a326.468,326.468,0,0,0,16.949-103.754,123.029,123.029,0,0,0-20.706,80.007,179.582,179.582,0,0,0,3.757,23.747Zm13.908,260.816h0l.268-.537A410.549,410.549,0,0,0,342.242,560c-3.757,3.891-7.6,7.737-11.091,11.9a164.13,164.13,0,0,0,20.706-8.408,117.3,117.3,0,0,0,52.816-54.426Zm-6.082-2.907h-4.472a2.459,2.459,0,0,1-1.386.76c-1.431.313-2.907.626-4.472,1.029-22.361,7.021-39.668,24.016-51.787,43.29-1.968,3.175-4.472,6.172-6.037,9.436a2.191,2.191,0,0,1-.447.85s0,0,0,.358a3.444,3.444,0,0,1-.716,1.834l-.984,3.4c1.655-1.744,3.488-3.4,4.875-5.188,6.037-6.4,12.522-12.79,18.962-18.649A417.251,417.251,0,0,1,389.6,512.6c2.907-1.923,5.68-4.472,8.944-6.619ZM378.6,327.093h0c.537-41.5-29.874-73.343-59.569-98.387,1.163,29.158,34.48,83.048,59.435,98.387h.134ZM357.268,434.916h0a5.691,5.691,0,0,0,0-.894,122.671,122.671,0,0,0-2.37-22.853c-7.111-30.545-25.983-59.748-55.991-71.554a22.359,22.359,0,0,0-4.159-1.252l-.671-.268c.626,6.127.581,12.611,1.207,17.531v6.082a46.834,46.834,0,0,1,2.683,4.472A150.265,150.265,0,0,0,332,413.673C340.006,421.41,348.95,427.895,357.268,434.916Zm0,6.619h0l-.581-.358c-29.248-22.942-45.3-37.745-61.626-68.737A191.184,191.184,0,0,1,280.3,440.283c-.626,1.521-1.252,3.041-1.923,4.472,26.833,10.375,46.063,34.659,55.723,61.313a86.937,86.937,0,0,1,3.13,11.091C344.3,492.025,351.1,466.8,357.268,441.49Zm23.389,63.818h0c-10.778-1.252-26.386-4.07-32.378-8.05-3.13,11.315-6.35,22.629-9.57,33.944a2.012,2.012,0,0,1,0,.85l-3.622,12.656a103.842,103.842,0,0,1,45.571-39.4ZM333.208,525.88h0a58.628,58.628,0,0,0-2.5-13.059c-8.318-26.833-26.833-52.145-53.666-62.61l-.85-.313c-1.342,2.639-2.683,5.277-4.114,7.871a4.963,4.963,0,0,1,0,.85,133.493,133.493,0,0,0,47.181,58.138,153.586,153.586,0,0,0,13.953,8.944ZM292.333,254.912h0a24.774,24.774,0,0,0-.671-7.916A250.44,250.44,0,0,0,218.051,356.43c19.633-10.778,37.7-24.15,50.222-43.022,11.9-17.441,23.166-37.074,24.06-58.675ZM259.91,468.591h0a195.835,195.835,0,0,0,28.756-128.708,308.579,308.579,0,0,1-16.949,65.741,340.2,340.2,0,0,0-11.806,62.61ZM286.743,702.8h0c13.416-57.467,30.1-114.129,46.153-170.925a158.761,158.761,0,0,1-56.975-53.666,132.469,132.469,0,0,1-7.469-14.579l-.8,1.3c-2.057,2.191-3.757,8.944-6.663,10.823a7.289,7.289,0,0,1-.8,3.667,2.415,2.415,0,0,1-1.431,2.147,3.669,3.669,0,0,1-.358,1.3A631.358,631.358,0,0,1,272.924,552.4c8.944,44.319,15.474,89.443,14.445,134.522,0,5.232-.268,10.465-.581,15.7Zm-7.021-27.5h2.326c-10.465-34.525-73.343-53.666-105.99-56.886a147.58,147.58,0,0,0,103.664,56.886ZM273.55,384.157h0a279.866,279.866,0,0,0,10.688-52.771,212.921,212.921,0,0,0-30.455,66.635c-3.98,20.93-1.431,42.351,1.565,63.236a298.457,298.457,0,0,1,5.009-30.9,283.224,283.224,0,0,1,13.416-46.421Zm-41.5,395.516h0c1.3-30.5-5.948-64.086-28.532-85.731,7.647,17.889,13.685,36.85,19.633,55.589.581,1.61,5.724,20.125,8.944,35.777V779.45ZM229.1,803.108h0c-3.309-34.078-15.653-66.814-26.833-98.834a59.571,59.571,0,0,0-3.712-8.676,197.178,197.178,0,0,0,8.318,62.074,183.358,183.358,0,0,0,22.361,45.258ZM202.8,282.684h0A150.935,150.935,0,0,0,216.709,184.3a253.706,253.706,0,0,1-23.792,48.254h0a18.872,18.872,0,0,0-1.476,5.769,184.253,184.253,0,0,0-1.073,46.018,165.459,165.459,0,0,0,2.057,17.128,160.6,160.6,0,0,0,10.286-18.783ZM215.77,173.117h0a189.126,189.126,0,0,0,9.526-41.188c-23.971,28.4-37.656,63.639-49.194,98.387-2.281,7.111-4.472,14.266-6.127,21.511a125.891,125.891,0,0,0,18.381-22.361,9.972,9.972,0,0,1,1.431-2.147,254.465,254.465,0,0,0,25-51.743,2.773,2.773,0,0,1,.894-2.46ZM200.922,494.485h0c16.5,0,34.167-1.118,48.746-9.57A191.5,191.5,0,0,0,172.3,463.4c-25.178-3.578-51.072-7.2-76.026-2.326,25.089,16.949,74.6,32.557,104.872,33.407ZM174.85,778.958h0c9.436,0,18.962.581,28.4,0C167.471,745.1,127,741.213,80.89,752.349c26.52,19.5,61.895,24.418,93.915,26.565Zm-14.087-434.6h0c11.449,0,22.9.671,34.346.492-20.035-8.139-42.083-8.452-63.5-8.944-23.121-2.728-46.868-7.424-66.59-20.393,14.982,15.563,41.77,21.511,61.805,26.341a227.457,227.457,0,0,0,33.944,2.639Zm25.76-47.449h0a241.494,241.494,0,0,1-1.342-53.666,121.867,121.867,0,0,1-16.144,16.771v.4c5.859,12.075,11.672,24.194,17.352,36.314ZM183.481,195.3h0a244.894,244.894,0,0,1,35.777-64.533c-36.627,24.06-55.723,68.826-52.414,112.117A488.551,488.551,0,0,1,183.481,195.3ZM167.918,424.854h0a334.512,334.512,0,0,0,58.63-5.456C183.257,391.8,128.16,385.365,80.8,405.981c19.588,13.416,63.013,17.889,87.117,18.828Zm-14.132-93.915h0a138.233,138.233,0,0,1,43.111,8.944,101.92,101.92,0,0,0-71.554-31.305c-19.588-.4-39.847-2.012-59.256.8C91.355,327,123.778,330.939,153.786,330.939ZM135.226,203.214h0l-.939-1.968a1.744,1.744,0,0,1-.8,0c-3.533-1.7-5.322-5.724-8.139-8.318a137.608,137.608,0,0,0-24.955-20.572c-12.388-8.318-26.833-12.209-41.144-16.1s-27.28-8.944-41.233-10.241c3.98,25.625,38.371,44.721,61.671,50.267,18.2,3.98,36.85,8.005,55.455,6.977Zm-.268,508.3h0C118.635,678.961,92.115,663,56.74,657.853,71.319,687.637,103.653,704.855,134.958,711.518Zm22.361-454.236h0c-38.729-22.987-93.513-11.762-134.835-.85C41.669,275.842,72.124,280.269,98.51,278.3a129.38,129.38,0,0,0,59.167-21.019ZM51.105,13.64h0c-2.773,37.521,17.889,73.88,44.051,99.595C82.41,79.336,61.615,48.433,51.105,13.64Z" transform="translate(44.677)" fill="#c4a890" fill-rule="evenodd"/>
        <path id="Trazado_3" data-name="Trazado 3" d="M159.983,147.291c-16.592-1.923-6.663-25.223,6.4-23.792C183.775,127.211,174.831,150.377,159.983,147.291Z" transform="translate(525.317 428.587)" fill="#c4a890" fill-rule="evenodd"/>
        <path id="Trazado_4" data-name="Trazado 4" d="M165.758,152.753a7.6,7.6,0,1,1,4.472-14.445C179.935,141.215,175.1,155.168,165.758,152.753Z" transform="translate(554.336 478.087)" fill="#c4a890" fill-rule="evenodd"/>
        <path id="Trazado_5" data-name="Trazado 5" d="M159.54,144.2a6.977,6.977,0,1,1,6.954,6.418,6.977,6.977,0,0,1-6.954-6.418Z" transform="translate(554.024 478.409)" fill="#c4a890" fill-rule="evenodd"/>
        <path id="Trazado_6" data-name="Trazado 6" d="M177.312,145.425c-10.912-10.107,4.472-31.305,16.323-19.275C210.585,134.066,188.85,156.292,177.312,145.425Z" transform="translate(602.798 425.534)" fill="#c4a890" fill-rule="evenodd"/>
        <path id="Trazado_7" data-name="Trazado 7" d="M128.758,119.217c-8.452-3.444-4.472-19.1,4.472-18.112C144.813,103.3,140.3,123.152,128.758,119.217Z" transform="translate(430.964 350.895)" fill="#c4a890" fill-rule="evenodd"/>
        <path id="Trazado_8" data-name="Trazado 8" d="M146.515,119.117a11.762,11.762,0,0,1-6.8-16.547c3.086-6.44,11.628-6.529,17.62-5.367C171.381,103.107,159.127,124.171,146.515,119.117Z" transform="translate(480.692 335.521)" fill="#c4a890" fill-rule="evenodd"/>
        <path id="Trazado_9" data-name="Trazado 9" d="M18.84,141.411c-16.323-5.277-12.209-30.9,5.814-26.207S36.326,143.691,18.84,141.411Z" transform="translate(29.94 398.02)" fill="#c4a890" fill-rule="evenodd"/>
        <path id="Trazado_10" data-name="Trazado 10" d="M10.794,114.193C2.3,113.209,2.387,99.3,9.5,96.3a7.111,7.111,0,0,1,10.018,7.96,8.139,8.139,0,0,1-8.721,9.928Z" transform="translate(14.954 331.949)" fill="#c4a890" fill-rule="evenodd"/>
        <path id="Trazado_11" data-name="Trazado 11" d="M9.005,160.03c-9.794-1.342-12.12-14.982-4.472-20.617a10.242,10.242,0,0,1,5.859-2.281,7.468,7.468,0,0,1,5.232-1.3C28.683,139.1,21.974,162.043,9.005,160.03Z" transform="translate(0.018 471.436)" fill="#c4a890" fill-rule="evenodd"/>
        <path id="Trazado_12" data-name="Trazado 12" d="M26.16,140.215a7.334,7.334,0,1,1,7.416,6.66,7.334,7.334,0,0,1-7.416-6.66Z" transform="translate(90.91 462.943)" fill="#c4a890" fill-rule="evenodd"/>
        <path id="Trazado_13" data-name="Trazado 13" d="M159.083,187.772a8.095,8.095,0,1,1,4.964-15.384C176.971,173.863,170.039,191.573,159.083,187.772Z" transform="translate(531.495 596.688)" fill="#c4a890" fill-rule="evenodd"/>
        <path id="Trazado_14" data-name="Trazado 14" d="M170.99,206.081c-14.356-.939-12.746-23.389,1.744-21.422,5.635-4.472,13.1,1.565,12.88,7.96a13.908,13.908,0,0,1-14.624,13.461Z" transform="translate(559.122 635.801)" fill="#c4a890" fill-rule="evenodd"/>
      </g>
    </g>
  </g>
</svg>
