<svg xmlns="http://www.w3.org/2000/svg" width="3477" height="1560.985" viewBox="0 0 3477 1560.985">
  <g id="Grupo_18" data-name="Grupo 18" transform="translate(778 -3474)">
    <rect id="Recurso_1_2x-100" data-name="Recurso 1@2x-100" width="3477" height="1346" transform="translate(-778 3474)" fill="#c4a890"/>
    <g id="Capa_2" data-name="Capa 2" transform="translate(1419.018 3569.015)">
      <g id="Capa_1" data-name="Capa 1" transform="translate(-0.018)">
        <path id="Trazado_1" data-name="Trazado 1" d="M405.3,312.254c23.949,0-17.667,41.485-22.967,48.421a213.379,213.379,0,0,1-60.2,44.3c-18.845,8.572-39.26,12.367-58.367,20.873-4.057.981-9.292,6.085-13.61,5.889-7.59,29.9-14.264,60.133-20.088,90.494,2.094-3.4,4.122-6.543,5.889-9.946a195.384,195.384,0,0,1,68.116-69.163c7.132-3.991,48.682-28.464,53.2-22.771s-6.543,21.986-9.1,28.987a188.316,188.316,0,0,1-74.79,78.52c-11.516,6.543-22.967,13.087-34.941,18.518a138.3,138.3,0,0,1-14,7.2q-6.543,37.1-10.8,74.529a3.206,3.206,0,0,1,0,2.225c-1.309,11.123-2.486,22.182-3.6,33.305A150.04,150.04,0,0,1,249.7,611.285a236.338,236.338,0,0,1,51.692-32.717,272.2,272.2,0,0,1,47.112-16.1c21-6.543,27.089-2.29,12.105,16.424a400.847,400.847,0,0,1-109.274,96.383c-14.33,7.525-27.744,20.873-44.168,22.575-.393,4.58-.72,9.1-.982,13.676q-2.29,43.448-3.337,87.157v2.487h-7.983v-2.945c1.112-55.815,4.842-111.629,11.32-167.051A135.372,135.372,0,0,1,182.3,616.65a127.989,127.989,0,0,1-36.446-34.222c-9.619-13.545-20.219-26.173-28.595-40.765-3.6-8.572-22.051-37.821-7.656-41.681,4.188-.589,7.721,2.813,11.32,4.58A299.638,299.638,0,0,1,159.6,532.568a150.5,150.5,0,0,1,48.224,68.574l1.57,4.711q6.543-47.832,15.508-95.14h-1.047a4.842,4.842,0,0,1-3.206-1.963,3.209,3.209,0,0,1-1.7-.851c-26.631-24.014-58.17-42.336-81.334-70.21-9.226-8.637-69.556-86.765-24.6-68.182,47.7,20.284,94.159,54.44,112.153,104.693.72,2.028,2.683,7.459,4.122,13.087,5.954-28.4,13.087-56.731,20.284-85.063a3.337,3.337,0,0,1-3.4-2.225l-.393-1.243c-38.344-26.632-62.816-71.126-78.193-114.378-3.4-13.087-11.516-39.26,0-49.6,11.516-.981,26.173,19.237,35.138,26.566,29.249,29.969,51.3,69.294,54.9,111.237q8.31-28.4,17.732-56.4l.393-1.243a3.729,3.729,0,0,1-1.047-.981c-12.432-47.766-12.04-100.833,11.712-145.262,7.525-13.937,26.173-43.382,40.307-48.813,9.292,2.683,6.543,16.62,7.525,24.145a282.6,282.6,0,0,1-14,98.15c-2.159,8.179-25.715,66.022-37.3,74.332-.981,9.422-9.422,28.4-9.684,32.717-5.824,18.387-11.189,36.839-16.293,55.422,5.758-7.2,11.843-13.676,14.2-16.686,34.745-39.784,83.231-63.536,133.877-75.968Zm-124.323-4.319h0c32.717-52.674,51.758-116.341,44.364-178.568-45.8,43.186-60.33,110.255-45.8,170.127l1.57,7.721v.589Zm8.833,165.35h0c16.555-14.068,32.717-28.529,50.514-41.027-46.458,20.546-85.063,53.067-106.722,99a65.425,65.425,0,0,0,5.038-5.758,558.587,558.587,0,0,1,51.169-52.347Zm69.1,94.093h0c-64.452,13.872-134.466,53.328-149.842,122.164,13.741-4.122,25.519-14,37.755-20.939A380.3,380.3,0,0,0,358.91,567.379ZM345.1,438.344h0a561.285,561.285,0,0,0-85.521,75.379c-7.525,8.507-15.639,16.555-22.705,25.454C283.923,516.341,323.706,486.83,345.1,438.344Zm-93.439-44.167h0l.458-1.505a3.4,3.4,0,0,1-1.44-3.141,154.225,154.225,0,0,0-5.169-41.681,207.947,207.947,0,0,0-69.359-100.244,570.446,570.446,0,0,1,45.8,80.287c9.291,22.444,21.855,43.382,30.034,66.284Zm-24.079-19.63h0a143.965,143.965,0,0,0,13.087,12.3c-4.908-11.778-10.731-23.1-16.293-34.549-9.1-20.154-18.06-40.438-28.987-59.741-7.132-12.5-15.377-24.341-23.163-36.446a33.351,33.351,0,0,0-2.159-3.468c0,44.756,30.557,88.4,57.581,121.9Zm-1.7,128.642h0v-.458l-1.767-.654c-8.964-62.227-64.059-106-120-127.333,18.976,43.906,55.03,78.52,93.308,106.133,9.1,6.543,17.405,14.4,26.173,21.593a3.006,3.006,0,0,1,.458.458h.785a3.075,3.075,0,0,1,1.309.131Z" transform="translate(535.287 664.536)" fill="#efdccc" fill-rule="evenodd"/>
        <path id="Trazado_2" data-name="Trazado 2" d="M693.91,556.511c3.991,5.889-3.926,13.676-6.543,18.845-22.9,34.156-60.984,56.076-99.655,67.985a335.482,335.482,0,0,1-49.991,10.993c-3.991,0-11.451,3.8-15.246,1.832q-6.543,26.893-14,53.655a190.364,190.364,0,0,1,22.313-10.339c47.7-15.835,101.029-13.087,148.8.851,12.432,9.226-21.462,25.126-28.791,26.893a254.4,254.4,0,0,1-54.244,11.909v.393A178.764,178.764,0,0,1,504.023,834.8a220.373,220.373,0,0,1-30.95,11.582,3.861,3.861,0,0,1-3.141-.72c-21.658,75.51-42.728,151.216-57.843,228.232-17.8,91.214-32.717,183.8-30.165,276.979.72,37.363,1.178,74.921,4.646,112.153v2.945h-7.328v-2.945c-2.159-25.519-3.468-51.1-4.122-76.688-1.374-36.708-1.178-73.416.916-109.994l-.654-.327a471.118,471.118,0,0,0-40.9-80.287h-1.047c-3.01-1.112-3.533-3.73-3.272-6.543l-5.758-8.572a28.664,28.664,0,0,1-4.907-6.936q-8.9-12.694-18.649-24.734a3.534,3.534,0,0,1-2.814-1.178l-.458-.589a401.237,401.237,0,0,1-109.4-7.46c-11.385-.785-113.527-32.258-75.052-46.719,52.347-12.236,110.648-12.3,155.731,19.237a607.681,607.681,0,0,0-68.64-61.834h-.654c-47.243-7.917-94.813-31.277-122.033-71.977-3.6-6.151-15.05-20.742-2.945-23.687,40.111,4.842,82.315,20.939,106,55.357,3.8,6.216,17.667,21.331,18.06,29.641l.916.523a539.633,539.633,0,0,1,98.935,94.355,226.733,226.733,0,0,1-14.2-42.99,305.766,305.766,0,0,1-7.329-72.369c-2.552-42.074,28.725-1.636,38.213,12.432,22.444,34.091,27.547,75.379,26.173,115.293a342.157,342.157,0,0,1-3.206,41.289c5.235,7.786,10.273,15.7,15.181,23.687a479.121,479.121,0,0,1,23.621,46.916c2.094-28.725,5.5-57.451,10.208-85.979,4.58-34.745,10.6-69.163,17.667-103.319a3.466,3.466,0,0,1-.851-1.243c1.9-24.21,2.945-48.486,2.945-72.827a37.662,37.662,0,0,0-4.777,0,221.884,221.884,0,0,1-130.867-58.89c-6.936-7.852-33.567-27.613-26.828-38.344,8.31-4.711,31.8,2.748,42.074,3.991,40.176,9.488,90.167,28.987,116.864,61.573l3.468,5.562a756.449,756.449,0,0,0-6.543-81.53,52.353,52.353,0,0,1-7.852.785c-57.058-4.842-113.331-23.163-158.349-58.89-11.974-9.161-52.347-45.8-47.177-60.526,5.954-5.955,17.209,0,24.734-.327a315.13,315.13,0,0,1,97.43,28.529,163.969,163.969,0,0,1,31.277,18.518,191.131,191.131,0,0,1,47.57,38.933c1.57,2.487,5.431,7.067,9.03,11.909-1.309-7.917-2.814-15.769-4.449-23.621-7.329-43.382-15.835-86.7-26.566-129.362-21.659,17.144-54.637,17.144-81.53,17.471-47.047,2.028-263.631-73.809-94.486-67.2,56.862,6.02,116.471,8.506,167.9,36.185a53.294,53.294,0,0,0,5.3,2.487q-6.543-25.388-14.4-50.515c-3.664-11.124-7.459-22.247-11.385-33.24a487.808,487.808,0,0,1-100.375,9.946c-17.8,3.075-189.43-23.033-113-47.9a245.767,245.767,0,0,1,88.6-12.694c43.448,1.9,84.409,18.321,121.052,41.092Q319.7,571.364,303.862,534.2a4.515,4.515,0,0,1-.851-.72,3.86,3.86,0,0,1-.785-3.141c-2.945-6.543-5.954-13.741-8.964-20.612-4.057,4.58-21.92,1.243-26.7,1.9-38.671-.851-78.52.916-115.49-11.124a221.037,221.037,0,0,1-50.907-21.069c-11.516-5.5-40.5-29.969-13.479-34.483a599.439,599.439,0,0,1,95.729-.982A150.039,150.039,0,0,1,273.3,478.842c1.832,1.832,5.954,4.842,10.077,8.375-15.05-33.175-30.754-66.022-46.719-98.8h-.393a6.543,6.543,0,0,1-1.9-4.515h0a3.337,3.337,0,0,1-4.122-1.767,199.18,199.18,0,0,1-120.79,33.5A167.838,167.838,0,0,1,47.3,399.144c-9.1-4.777-41.681-21.724-22.378-31.6,61.835-16.162,144.412-32.717,202.32,1.832l-32.062-65.433a3.665,3.665,0,0,1-2.159.982,93.978,93.978,0,0,1-10.535,0c-52.347-2.683-109.143-12.629-147.291-51.3-10.338-11.582-27.94-28.856-20.612-45.8,10.862-7.983,44.1,7.2,57.712,9.619,40.961,8.964,79.5,26.173,108.423,56.207q-7.132-14.919-14.264-29.9c-9.357-20.808-18.845-41.616-27.744-62.685-39.26-35.857-71.977-82.97-76.95-137.41C61.627,32.717,55.935,5.824,68.694,0c18.976,5.627,42.074,41.419,52.739,58.236,20.939,34.222,26.173,77.735,21.855,116.275a4.122,4.122,0,0,1,1.178,1.57c7.459,17.209,15.311,34.222,22.9,51.3,4.646,9.946,9.357,19.63,14.134,29.9a222.475,222.475,0,0,1-3.6-67.527c6.543-41.55,22.64-85.914,53.132-115.294,15.181-1.44,11.255,34.614,13.087,44.887,5.3,57.32-23.949,109.666-51.5,157.891a8.245,8.245,0,0,1,.458,4.122q19.041,39.26,38.344,78.52c-3.337-40.5,3.206-81.792,25.126-116.668a166.855,166.855,0,0,1,53.394-57.581c5.235-3.206,10.535-8.768,17.078-8.048,11.647,4.842-1.5,46.916-3.4,57.712-2.421,6.936-4.907,14.068-7.525,21.135,10.862,47.177,9.553,97.1-10.469,141.729-2.617,6.02-19.63,46.719-28.922,56.4,10.077,21.855,19.63,43.775,29.38,65.826a353.93,353.93,0,0,1,84.147-140.878c7.852-5.889,29.445-38.082,37.559-21.527,7.2,38.017-15.246,74.987-35.53,105.544-20.939,31.539-49.6,49.6-81.2,68.509,16.947,40.372,32.717,81.137,45.8,122.688-4.777-40.372-2.094-81.792,16.358-118.434,7.2-13.087,27.744-67,43.055-64.845a32.717,32.717,0,0,1,7.067,16.947,4.58,4.58,0,0,1,5.562-.589c41.027,13.675,70.537,49.337,85.063,89.316a148.993,148.993,0,0,1,9.619,40.9c10.011-43.317,18.648-86.9,24.93-130.867-33.7-19.63-55.029-54.7-73.351-88.008-6.02-9.946-36.446-74.594-13.806-73.743,32.717,24.407,70.014,63.209,85.063,101.16a159.335,159.335,0,0,1,6.543,24.734c1.243-10.927,2.29-21.855,3.206-32.717,1.57-14.4,3.075-28.791,4.253-43.251a3.4,3.4,0,0,1-1.047-4.122c-8.964-40.569-11.516-83.3,4.122-122.557,4.384-9.226,24.276-66.153,36.839-43.906,16.424,49.4,19.63,112.087-10.862,157.04-4.253,4.449-15.115,22.9-21.724,19.237-1.636,20.219-3.73,40.438-6.151,60.657q-2.094,21.4-4.908,42.728a4.057,4.057,0,0,1-.523,3.86c-.785,5.758-1.57,11.516-2.486,17.209,4.45-10.4,9.815-20.808,11.974-25.192,22.378-39.26,56.469-76.164,98.15-94.355,8.441,3.926,1.832,16.555.654,23.36-9.161,31.67-30.688,57.254-52.347,81.53-4.842,6.543-53.721,49.271-64.19,48.29-5.562,31.343-12.171,62.423-19.63,93.373a157.038,157.038,0,0,1,40.438-40.961c27.678-20.284,61.9-27.089,94.813-33.175C670.551,557.754,689.068,552.585,693.91,556.511ZM623.7,726.965h0c17.34-4.646,36.381-8.114,49.86-20.939-52.936-13.087-119.481-17.536-166.593,14.2,17.34,8.833,37.624,10.862,56.862,12.3a216.514,216.514,0,0,0,59.872-5.562Zm-21.331-96.514h0c33.437-14.265,65.826-35.007,83.886-67.724-33.306,4.515-67.462,10.077-97.758,25.388a144.74,144.74,0,0,0-60.657,60.068,364.789,364.789,0,0,0,74.529-17.732ZM591.834,341.824h0c15.508-35.988,15.7-78.52,6.543-116.341a546.632,546.632,0,0,1-13.087,99.851,295.9,295.9,0,0,1-14.33,45.28,39.26,39.26,0,0,0,7.852-8.114A98.147,98.147,0,0,0,591.9,341.824Zm-26.173,21.135h0a477.666,477.666,0,0,0,24.8-151.806,180.007,180.007,0,0,0-30.3,117.06A262.751,262.751,0,0,0,565.661,362.959Zm20.35,381.608h0l.393-.785A600.685,600.685,0,0,0,494.8,819.357c-5.5,5.693-11.124,11.32-16.227,17.405a240.146,240.146,0,0,0,30.3-12.3,171.631,171.631,0,0,0,77.277-79.633Zm-8.9-4.253h-6.543a3.6,3.6,0,0,1-2.028,1.112c-2.094.458-4.253.916-6.543,1.505-32.717,10.273-58.039,35.138-75.772,63.34-2.879,4.646-6.543,9.03-8.833,13.806a3.206,3.206,0,0,1-.654,1.243s0,0,0,.523a5.039,5.039,0,0,1-1.047,2.683l-1.44,4.973c2.421-2.552,5.1-4.973,7.132-7.59,8.833-9.357,18.321-18.714,27.744-27.286A610.5,610.5,0,0,1,564.09,750c4.253-2.814,8.31-6.543,13.087-9.684ZM547.994,478.58h0c.785-60.722-43.71-107.311-87.157-143.953,1.7,42.663,50.449,121.51,86.961,143.953h.2ZM516.782,636.34h0a8.335,8.335,0,0,0,0-1.309,179.484,179.484,0,0,0-3.468-33.436C502.91,556.9,475.3,514.176,431.391,496.9a32.713,32.713,0,0,0-6.085-1.832l-.982-.393c.916,8.964.851,18.452,1.767,25.65v8.9a68.514,68.514,0,0,1,3.926,6.543,219.857,219.857,0,0,0,49.795,69.49C491.525,616.579,504.611,626.067,516.782,636.34Zm0,9.684h0l-.851-.523c-42.793-33.567-66.284-55.226-90.167-100.571a279.727,279.727,0,0,1-21.593,99.262c-.916,2.225-1.832,4.449-2.814,6.543,39.26,15.181,67.4,50.711,81.53,89.709a127.2,127.2,0,0,1,4.58,16.227c10.339-36.774,20.284-73.678,29.314-110.713ZM551,739.4h0c-15.77-1.832-38.606-5.954-47.374-11.778-4.58,16.555-9.292,33.109-14,49.664a2.944,2.944,0,0,1,0,1.243l-5.3,18.518A151.935,151.935,0,0,1,551,739.4Zm-69.425,30.034h0a85.78,85.78,0,0,0-3.664-19.107c-12.171-39.26-39.26-76.3-78.52-91.607l-1.243-.458c-1.963,3.861-3.926,7.721-6.02,11.516a7.26,7.26,0,0,1,0,1.243,195.318,195.318,0,0,0,69.032,85.063,224.728,224.728,0,0,0,20.415,13.087ZM421.773,372.97h0a36.247,36.247,0,0,0-.982-11.582A366.426,366.426,0,0,0,313.088,521.5c28.725-15.769,55.16-35.334,73.482-62.947,17.405-25.519,33.894-54.244,35.2-85.849ZM374.334,685.611h0a286.532,286.532,0,0,0,42.074-188.317,451.492,451.492,0,0,1-24.8,96.187,497.757,497.757,0,0,0-17.274,91.607Zm39.26,342.675h0C433.224,944.2,457.63,861.3,481.121,778.2a232.289,232.289,0,0,1-83.362-78.52,193.823,193.823,0,0,1-10.927-21.331l-1.178,1.9c-3.01,3.206-5.5,13.087-9.75,15.835a10.665,10.665,0,0,1-1.178,5.366,3.534,3.534,0,0,1-2.094,3.141,5.368,5.368,0,0,1-.524,1.9,923.762,923.762,0,0,1,21.266,101.749c13.087,64.844,22.64,130.867,21.135,196.824,0,7.656-.393,15.311-.851,22.967Zm-10.273-40.241h3.4c-15.311-50.515-107.311-78.52-155.077-83.231a215.93,215.93,0,0,0,151.675,83.231Zm-9.03-425.971h0a409.483,409.483,0,0,0,15.639-77.211,311.532,311.532,0,0,0-44.56,97.5c-5.824,30.623-2.094,61.965,2.29,92.523a436.688,436.688,0,0,1,7.329-45.215,414.392,414.392,0,0,1,19.63-67.92Zm-60.722,578.693h0c1.9-44.625-8.7-93.766-41.747-125.436,11.189,26.173,20.023,53.917,28.725,81.334.851,2.356,8.375,29.445,13.087,52.347v-8.572Zm-4.319,34.287h0c-4.842-49.86-22.9-97.758-39.26-144.608a87.165,87.165,0,0,0-5.431-12.694,288.5,288.5,0,0,0,12.171,90.822,268.275,268.275,0,0,0,32.717,66.219ZM290.775,413.6h0a220.838,220.838,0,0,0,20.35-143.953,371.2,371.2,0,0,1-34.811,70.6h0a27.612,27.612,0,0,0-2.159,8.441,269.587,269.587,0,0,0-1.57,67.331,242.094,242.094,0,0,0,3.01,25.061,234.975,234.975,0,0,0,15.05-27.482Zm18.976-160.312h0a276.716,276.716,0,0,0,13.937-60.264c-35.072,41.55-55.095,93.112-71.977,143.953-3.337,10.4-6.543,20.873-8.964,31.473a184.194,184.194,0,0,0,26.893-32.717,14.59,14.59,0,0,1,2.094-3.141,372.316,372.316,0,0,0,36.577-75.706,4.057,4.057,0,0,1,1.309-3.6ZM288.027,723.5h0c24.145,0,49.991-1.636,71.322-14a280.185,280.185,0,0,0-113.2-31.473c-36.839-5.235-74.725-10.535-111.237-3.4,36.708,24.8,109.143,47.635,153.441,48.879Zm-38.148,416.222h0c13.806,0,27.744.851,41.55,0-52.347-49.533-111.564-55.226-179.026-38.933,38.8,28.529,90.56,35.727,137.41,38.868ZM229.268,503.837h0c16.751,0,33.5.982,50.253.72-29.314-11.909-61.573-12.367-92.915-13.087-33.829-3.991-68.574-10.862-97.43-29.838,21.92,22.771,61.115,31.473,90.429,38.54a332.8,332.8,0,0,0,49.664,3.861Zm37.69-69.425h0a353.336,353.336,0,0,1-1.963-78.52,178.3,178.3,0,0,1-23.622,24.538v.589c8.572,17.667,17.078,35.4,25.388,53.132Zm-4.449-148.665h0a358.314,358.314,0,0,1,52.347-94.42c-53.59,35.2-81.53,100.7-76.688,164.041a714.815,714.815,0,0,1,24.341-69.621Zm-22.771,335.87h0a489.437,489.437,0,0,0,85.783-7.983C262.181,573.262,181.567,563.84,112.273,594c28.66,19.63,92.2,26.173,127.464,27.547ZM219.06,484.207h0a202.254,202.254,0,0,1,63.078,13.087,149.122,149.122,0,0,0-104.693-45.8c-28.66-.589-58.3-2.944-86.7,1.178C127.715,478.449,175.154,484.207,219.06,484.207ZM191.905,297.329h0l-1.374-2.879a2.552,2.552,0,0,1-1.178,0c-5.169-2.487-7.787-8.376-11.909-12.171a201.339,201.339,0,0,0-36.512-30.1c-18.125-12.171-39.26-17.863-60.2-23.556S40.82,215.538,20.4,213.64c5.824,37.493,56.142,65.433,90.233,73.547,26.631,5.824,53.917,11.713,81.137,10.208Zm-.393,743.716h0c-23.883-47.635-62.685-71-114.443-78.52C98.4,1006.1,145.709,1031.3,191.513,1041.045Zm32.717-664.607h0C167.564,342.806,87.408,359.229,26.948,375.2c28.071,28.4,72.631,34.876,111.237,32a189.3,189.3,0,0,0,86.568-30.754ZM68.825,19.957h0c-4.057,54.9,26.173,108.1,64.452,145.72C114.628,116.079,84.2,70.864,68.825,19.957Z" transform="translate(71.317)" fill="#efdccc" fill-rule="evenodd"/>
        <path id="Trazado_3" data-name="Trazado 3" d="M164.017,158.339c-24.276-2.814-9.75-36.9,9.357-34.811C198.828,128.959,185.741,162.854,164.017,158.339Z" transform="translate(838.668 684.247)" fill="#efdccc" fill-rule="evenodd"/>
        <path id="Trazado_4" data-name="Trazado 4" d="M168.6,159.729a11.124,11.124,0,1,1,6.543-21.135C189.339,142.847,182.272,163.262,168.6,159.729Z" transform="translate(884.996 763.275)" fill="#efdccc" fill-rule="evenodd"/>
        <path id="Trazado_5" data-name="Trazado 5" d="M159.54,147.176a10.208,10.208,0,0,1,20.35,0,10.208,10.208,0,0,1-20.35,0Z" transform="translate(884.499 763.788)" fill="#efdccc" fill-rule="evenodd"/>
        <path id="Trazado_6" data-name="Trazado 6" d="M179.037,156.016c-15.966-14.788,6.543-45.8,23.883-28.2C227.72,139.4,195.919,171.916,179.037,156.016Z" transform="translate(962.367 679.372)" fill="#efdccc" fill-rule="evenodd"/>
        <path id="Trazado_7" data-name="Trazado 7" d="M130.916,127.626c-12.367-5.038-6.543-27.94,6.543-26.5C154.407,104.331,147.8,133.384,130.916,127.626Z" transform="translate(688.032 560.21)" fill="#efdccc" fill-rule="evenodd"/>
        <path id="Trazado_8" data-name="Trazado 8" d="M150.265,129.531a17.209,17.209,0,0,1-9.946-24.21c4.515-9.422,17.013-9.553,25.781-7.852C186.646,106.105,168.717,136.924,150.265,129.531Z" transform="translate(767.422 535.665)" fill="#efdccc" fill-rule="evenodd"/>
        <path id="Trazado_9" data-name="Trazado 9" d="M23.582,153.812C-.3,146.091,5.719,108.6,32.088,115.468S49.167,157.15,23.582,153.812Z" transform="translate(47.79 635.445)" fill="#efdccc" fill-rule="evenodd"/>
        <path id="Trazado_10" data-name="Trazado 10" d="M13.809,122.8c-12.432-1.44-12.3-21.789-1.9-26.173a10.4,10.4,0,0,1,14.657,11.647A11.909,11.909,0,0,1,13.81,122.8Z" transform="translate(23.864 529.962)" fill="#efdccc" fill-rule="evenodd"/>
        <path id="Trazado_11" data-name="Trazado 11" d="M13.184,171.263C-1.146,169.3-4.549,149.343,6.641,141.1a14.985,14.985,0,0,1,8.572-3.337,10.927,10.927,0,0,1,7.656-1.9C41.975,140.64,32.16,174.208,13.184,171.263Z" transform="translate(0.018 752.656)" fill="#efdccc" fill-rule="evenodd"/>
        <path id="Trazado_12" data-name="Trazado 12" d="M26.16,143.4a10.731,10.731,0,0,1,21.4-.327,10.731,10.731,0,0,1-21.4.327Z" transform="translate(145.128 739.096)" fill="#efdccc" fill-rule="evenodd"/>
        <path id="Trazado_13" data-name="Trazado 13" d="M161.876,195.145a11.843,11.843,0,1,1,7.263-22.509C188.049,174.8,177.907,200.707,161.876,195.145Z" transform="translate(848.53 952.622)" fill="#efdccc" fill-rule="evenodd"/>
        <path id="Trazado_14" data-name="Trazado 14" d="M175.612,216.717c-21-1.374-18.649-34.222,2.552-31.343,8.245-6.543,19.172,2.29,18.845,11.647a20.35,20.35,0,0,1-21.4,19.7Z" transform="translate(892.637 1015.067)" fill="#efdccc" fill-rule="evenodd"/>
      </g>
    </g>
    <g id="Capa_2-2" data-name="Capa 2" transform="translate(-685.187 3505.015)">
      <g id="Capa_1-2" data-name="Capa 1" transform="translate(-0.018)">
        <path id="Trazado_1-2" data-name="Trazado 1" d="M405.3,312.254c23.949,0-17.667,41.485-22.967,48.421a213.379,213.379,0,0,1-60.2,44.3c-18.845,8.572-39.26,12.367-58.367,20.873-4.057.981-9.292,6.085-13.61,5.889-7.59,29.9-14.264,60.133-20.088,90.494,2.094-3.4,4.122-6.543,5.889-9.946a195.384,195.384,0,0,1,68.116-69.163c7.132-3.991,48.682-28.464,53.2-22.771s-6.543,21.986-9.1,28.987a188.316,188.316,0,0,1-74.79,78.52c-11.516,6.543-22.967,13.087-34.941,18.518a138.3,138.3,0,0,1-14,7.2q-6.543,37.1-10.8,74.529a3.206,3.206,0,0,1,0,2.225c-1.309,11.123-2.486,22.182-3.6,33.305A150.04,150.04,0,0,1,249.7,611.285a236.338,236.338,0,0,1,51.692-32.717,272.2,272.2,0,0,1,47.112-16.1c21-6.543,27.089-2.29,12.105,16.424a400.847,400.847,0,0,1-109.274,96.383c-14.33,7.525-27.744,20.873-44.168,22.575-.393,4.58-.72,9.1-.982,13.676q-2.29,43.448-3.337,87.157v2.487h-7.983v-2.945c1.112-55.815,4.842-111.629,11.32-167.051A135.372,135.372,0,0,1,182.3,616.65a127.989,127.989,0,0,1-36.446-34.222c-9.619-13.545-20.219-26.173-28.595-40.765-3.6-8.572-22.051-37.821-7.656-41.681,4.188-.589,7.721,2.813,11.32,4.58A299.638,299.638,0,0,1,159.6,532.568a150.5,150.5,0,0,1,48.224,68.574l1.57,4.711q6.543-47.832,15.508-95.14h-1.047a4.842,4.842,0,0,1-3.206-1.963,3.209,3.209,0,0,1-1.7-.851c-26.631-24.014-58.17-42.336-81.334-70.21-9.226-8.637-69.556-86.765-24.6-68.182,47.7,20.284,94.159,54.44,112.153,104.693.72,2.028,2.683,7.459,4.122,13.087,5.954-28.4,13.087-56.731,20.284-85.063a3.337,3.337,0,0,1-3.4-2.225l-.393-1.243c-38.344-26.632-62.816-71.126-78.193-114.378-3.4-13.087-11.516-39.26,0-49.6,11.516-.981,26.173,19.237,35.138,26.566,29.249,29.969,51.3,69.294,54.9,111.237q8.31-28.4,17.732-56.4l.393-1.243a3.729,3.729,0,0,1-1.047-.981c-12.432-47.766-12.04-100.833,11.712-145.262,7.525-13.937,26.173-43.382,40.307-48.813,9.292,2.683,6.543,16.62,7.525,24.145a282.6,282.6,0,0,1-14,98.15c-2.159,8.179-25.715,66.022-37.3,74.332-.981,9.422-9.422,28.4-9.684,32.717-5.824,18.387-11.189,36.839-16.293,55.422,5.758-7.2,11.843-13.676,14.2-16.686,34.745-39.784,83.231-63.536,133.877-75.968Zm-124.323-4.319h0c32.717-52.674,51.758-116.341,44.364-178.568-45.8,43.186-60.33,110.255-45.8,170.127l1.57,7.721v.589Zm8.833,165.35h0c16.555-14.068,32.717-28.529,50.514-41.027-46.458,20.546-85.063,53.067-106.722,99a65.425,65.425,0,0,0,5.038-5.758,558.587,558.587,0,0,1,51.169-52.347Zm69.1,94.093h0c-64.452,13.872-134.466,53.328-149.842,122.164,13.741-4.122,25.519-14,37.755-20.939A380.3,380.3,0,0,0,358.91,567.379ZM345.1,438.344h0a561.285,561.285,0,0,0-85.521,75.379c-7.525,8.507-15.639,16.555-22.705,25.454C283.923,516.341,323.706,486.83,345.1,438.344Zm-93.439-44.167h0l.458-1.505a3.4,3.4,0,0,1-1.44-3.141,154.225,154.225,0,0,0-5.169-41.681,207.947,207.947,0,0,0-69.359-100.244,570.446,570.446,0,0,1,45.8,80.287c9.291,22.444,21.855,43.382,30.034,66.284Zm-24.079-19.63h0a143.965,143.965,0,0,0,13.087,12.3c-4.908-11.778-10.731-23.1-16.293-34.549-9.1-20.154-18.06-40.438-28.987-59.741-7.132-12.5-15.377-24.341-23.163-36.446a33.351,33.351,0,0,0-2.159-3.468c0,44.756,30.557,88.4,57.581,121.9Zm-1.7,128.642h0v-.458l-1.767-.654c-8.964-62.227-64.059-106-120-127.333,18.976,43.906,55.03,78.52,93.308,106.133,9.1,6.543,17.405,14.4,26.173,21.593a3.006,3.006,0,0,1,.458.458h.785a3.075,3.075,0,0,1,1.309.131Z" transform="translate(535.287 664.536)" fill="#efdccc" fill-rule="evenodd"/>
        <path id="Trazado_2-2" data-name="Trazado 2" d="M693.91,556.511c3.991,5.889-3.926,13.676-6.543,18.845-22.9,34.156-60.984,56.076-99.655,67.985a335.482,335.482,0,0,1-49.991,10.993c-3.991,0-11.451,3.8-15.246,1.832q-6.543,26.893-14,53.655a190.364,190.364,0,0,1,22.313-10.339c47.7-15.835,101.029-13.087,148.8.851,12.432,9.226-21.462,25.126-28.791,26.893a254.4,254.4,0,0,1-54.244,11.909v.393A178.764,178.764,0,0,1,504.023,834.8a220.373,220.373,0,0,1-30.95,11.582,3.861,3.861,0,0,1-3.141-.72c-21.658,75.51-42.728,151.216-57.843,228.232-17.8,91.214-32.717,183.8-30.165,276.979.72,37.363,1.178,74.921,4.646,112.153v2.945h-7.328v-2.945c-2.159-25.519-3.468-51.1-4.122-76.688-1.374-36.708-1.178-73.416.916-109.994l-.654-.327a471.118,471.118,0,0,0-40.9-80.287h-1.047c-3.01-1.112-3.533-3.73-3.272-6.543l-5.758-8.572a28.664,28.664,0,0,1-4.907-6.936q-8.9-12.694-18.649-24.734a3.534,3.534,0,0,1-2.814-1.178l-.458-.589a401.237,401.237,0,0,1-109.4-7.46c-11.385-.785-113.527-32.258-75.052-46.719,52.347-12.236,110.648-12.3,155.731,19.237a607.681,607.681,0,0,0-68.64-61.834h-.654c-47.243-7.917-94.813-31.277-122.033-71.977-3.6-6.151-15.05-20.742-2.945-23.687,40.111,4.842,82.315,20.939,106,55.357,3.8,6.216,17.667,21.331,18.06,29.641l.916.523a539.633,539.633,0,0,1,98.935,94.355,226.733,226.733,0,0,1-14.2-42.99,305.766,305.766,0,0,1-7.329-72.369c-2.552-42.074,28.725-1.636,38.213,12.432,22.444,34.091,27.547,75.379,26.173,115.293a342.157,342.157,0,0,1-3.206,41.289c5.235,7.786,10.273,15.7,15.181,23.687a479.121,479.121,0,0,1,23.621,46.916c2.094-28.725,5.5-57.451,10.208-85.979,4.58-34.745,10.6-69.163,17.667-103.319a3.466,3.466,0,0,1-.851-1.243c1.9-24.21,2.945-48.486,2.945-72.827a37.662,37.662,0,0,0-4.777,0,221.884,221.884,0,0,1-130.867-58.89c-6.936-7.852-33.567-27.613-26.828-38.344,8.31-4.711,31.8,2.748,42.074,3.991,40.176,9.488,90.167,28.987,116.864,61.573l3.468,5.562a756.449,756.449,0,0,0-6.543-81.53,52.353,52.353,0,0,1-7.852.785c-57.058-4.842-113.331-23.163-158.349-58.89-11.974-9.161-52.347-45.8-47.177-60.526,5.954-5.955,17.209,0,24.734-.327a315.13,315.13,0,0,1,97.43,28.529,163.969,163.969,0,0,1,31.277,18.518,191.131,191.131,0,0,1,47.57,38.933c1.57,2.487,5.431,7.067,9.03,11.909-1.309-7.917-2.814-15.769-4.449-23.621-7.329-43.382-15.835-86.7-26.566-129.362-21.659,17.144-54.637,17.144-81.53,17.471-47.047,2.028-263.631-73.809-94.486-67.2,56.862,6.02,116.471,8.506,167.9,36.185a53.294,53.294,0,0,0,5.3,2.487q-6.543-25.388-14.4-50.515c-3.664-11.124-7.459-22.247-11.385-33.24a487.808,487.808,0,0,1-100.375,9.946c-17.8,3.075-189.43-23.033-113-47.9a245.767,245.767,0,0,1,88.6-12.694c43.448,1.9,84.409,18.321,121.052,41.092Q319.7,571.364,303.862,534.2a4.515,4.515,0,0,1-.851-.72,3.86,3.86,0,0,1-.785-3.141c-2.945-6.543-5.954-13.741-8.964-20.612-4.057,4.58-21.92,1.243-26.7,1.9-38.671-.851-78.52.916-115.49-11.124a221.037,221.037,0,0,1-50.907-21.069c-11.516-5.5-40.5-29.969-13.479-34.483a599.439,599.439,0,0,1,95.729-.982A150.039,150.039,0,0,1,273.3,478.842c1.832,1.832,5.954,4.842,10.077,8.375-15.05-33.175-30.754-66.022-46.719-98.8h-.393a6.543,6.543,0,0,1-1.9-4.515h0a3.337,3.337,0,0,1-4.122-1.767,199.18,199.18,0,0,1-120.79,33.5A167.838,167.838,0,0,1,47.3,399.144c-9.1-4.777-41.681-21.724-22.378-31.6,61.835-16.162,144.412-32.717,202.32,1.832l-32.062-65.433a3.665,3.665,0,0,1-2.159.982,93.978,93.978,0,0,1-10.535,0c-52.347-2.683-109.143-12.629-147.291-51.3-10.338-11.582-27.94-28.856-20.612-45.8,10.862-7.983,44.1,7.2,57.712,9.619,40.961,8.964,79.5,26.173,108.423,56.207q-7.132-14.919-14.264-29.9c-9.357-20.808-18.845-41.616-27.744-62.685-39.26-35.857-71.977-82.97-76.95-137.41C61.627,32.717,55.935,5.824,68.694,0c18.976,5.627,42.074,41.419,52.739,58.236,20.939,34.222,26.173,77.735,21.855,116.275a4.122,4.122,0,0,1,1.178,1.57c7.459,17.209,15.311,34.222,22.9,51.3,4.646,9.946,9.357,19.63,14.134,29.9a222.475,222.475,0,0,1-3.6-67.527c6.543-41.55,22.64-85.914,53.132-115.294,15.181-1.44,11.255,34.614,13.087,44.887,5.3,57.32-23.949,109.666-51.5,157.891a8.245,8.245,0,0,1,.458,4.122q19.041,39.26,38.344,78.52c-3.337-40.5,3.206-81.792,25.126-116.668a166.855,166.855,0,0,1,53.394-57.581c5.235-3.206,10.535-8.768,17.078-8.048,11.647,4.842-1.5,46.916-3.4,57.712-2.421,6.936-4.907,14.068-7.525,21.135,10.862,47.177,9.553,97.1-10.469,141.729-2.617,6.02-19.63,46.719-28.922,56.4,10.077,21.855,19.63,43.775,29.38,65.826a353.93,353.93,0,0,1,84.147-140.878c7.852-5.889,29.445-38.082,37.559-21.527,7.2,38.017-15.246,74.987-35.53,105.544-20.939,31.539-49.6,49.6-81.2,68.509,16.947,40.372,32.717,81.137,45.8,122.688-4.777-40.372-2.094-81.792,16.358-118.434,7.2-13.087,27.744-67,43.055-64.845a32.717,32.717,0,0,1,7.067,16.947,4.58,4.58,0,0,1,5.562-.589c41.027,13.675,70.537,49.337,85.063,89.316a148.993,148.993,0,0,1,9.619,40.9c10.011-43.317,18.648-86.9,24.93-130.867-33.7-19.63-55.029-54.7-73.351-88.008-6.02-9.946-36.446-74.594-13.806-73.743,32.717,24.407,70.014,63.209,85.063,101.16a159.335,159.335,0,0,1,6.543,24.734c1.243-10.927,2.29-21.855,3.206-32.717,1.57-14.4,3.075-28.791,4.253-43.251a3.4,3.4,0,0,1-1.047-4.122c-8.964-40.569-11.516-83.3,4.122-122.557,4.384-9.226,24.276-66.153,36.839-43.906,16.424,49.4,19.63,112.087-10.862,157.04-4.253,4.449-15.115,22.9-21.724,19.237-1.636,20.219-3.73,40.438-6.151,60.657q-2.094,21.4-4.908,42.728a4.057,4.057,0,0,1-.523,3.86c-.785,5.758-1.57,11.516-2.486,17.209,4.45-10.4,9.815-20.808,11.974-25.192,22.378-39.26,56.469-76.164,98.15-94.355,8.441,3.926,1.832,16.555.654,23.36-9.161,31.67-30.688,57.254-52.347,81.53-4.842,6.543-53.721,49.271-64.19,48.29-5.562,31.343-12.171,62.423-19.63,93.373a157.038,157.038,0,0,1,40.438-40.961c27.678-20.284,61.9-27.089,94.813-33.175C670.551,557.754,689.068,552.585,693.91,556.511ZM623.7,726.965h0c17.34-4.646,36.381-8.114,49.86-20.939-52.936-13.087-119.481-17.536-166.593,14.2,17.34,8.833,37.624,10.862,56.862,12.3a216.514,216.514,0,0,0,59.872-5.562Zm-21.331-96.514h0c33.437-14.265,65.826-35.007,83.886-67.724-33.306,4.515-67.462,10.077-97.758,25.388a144.74,144.74,0,0,0-60.657,60.068,364.789,364.789,0,0,0,74.529-17.732ZM591.834,341.824h0c15.508-35.988,15.7-78.52,6.543-116.341a546.632,546.632,0,0,1-13.087,99.851,295.9,295.9,0,0,1-14.33,45.28,39.26,39.26,0,0,0,7.852-8.114A98.147,98.147,0,0,0,591.9,341.824Zm-26.173,21.135h0a477.666,477.666,0,0,0,24.8-151.806,180.007,180.007,0,0,0-30.3,117.06A262.751,262.751,0,0,0,565.661,362.959Zm20.35,381.608h0l.393-.785A600.685,600.685,0,0,0,494.8,819.357c-5.5,5.693-11.124,11.32-16.227,17.405a240.146,240.146,0,0,0,30.3-12.3,171.631,171.631,0,0,0,77.277-79.633Zm-8.9-4.253h-6.543a3.6,3.6,0,0,1-2.028,1.112c-2.094.458-4.253.916-6.543,1.505-32.717,10.273-58.039,35.138-75.772,63.34-2.879,4.646-6.543,9.03-8.833,13.806a3.206,3.206,0,0,1-.654,1.243s0,0,0,.523a5.039,5.039,0,0,1-1.047,2.683l-1.44,4.973c2.421-2.552,5.1-4.973,7.132-7.59,8.833-9.357,18.321-18.714,27.744-27.286A610.5,610.5,0,0,1,564.09,750c4.253-2.814,8.31-6.543,13.087-9.684ZM547.994,478.58h0c.785-60.722-43.71-107.311-87.157-143.953,1.7,42.663,50.449,121.51,86.961,143.953h.2ZM516.782,636.34h0a8.335,8.335,0,0,0,0-1.309,179.484,179.484,0,0,0-3.468-33.436C502.91,556.9,475.3,514.176,431.391,496.9a32.713,32.713,0,0,0-6.085-1.832l-.982-.393c.916,8.964.851,18.452,1.767,25.65v8.9a68.514,68.514,0,0,1,3.926,6.543,219.857,219.857,0,0,0,49.795,69.49C491.525,616.579,504.611,626.067,516.782,636.34Zm0,9.684h0l-.851-.523c-42.793-33.567-66.284-55.226-90.167-100.571a279.727,279.727,0,0,1-21.593,99.262c-.916,2.225-1.832,4.449-2.814,6.543,39.26,15.181,67.4,50.711,81.53,89.709a127.2,127.2,0,0,1,4.58,16.227c10.339-36.774,20.284-73.678,29.314-110.713ZM551,739.4h0c-15.77-1.832-38.606-5.954-47.374-11.778-4.58,16.555-9.292,33.109-14,49.664a2.944,2.944,0,0,1,0,1.243l-5.3,18.518A151.935,151.935,0,0,1,551,739.4Zm-69.425,30.034h0a85.78,85.78,0,0,0-3.664-19.107c-12.171-39.26-39.26-76.3-78.52-91.607l-1.243-.458c-1.963,3.861-3.926,7.721-6.02,11.516a7.26,7.26,0,0,1,0,1.243,195.318,195.318,0,0,0,69.032,85.063,224.728,224.728,0,0,0,20.415,13.087ZM421.773,372.97h0a36.247,36.247,0,0,0-.982-11.582A366.426,366.426,0,0,0,313.088,521.5c28.725-15.769,55.16-35.334,73.482-62.947,17.405-25.519,33.894-54.244,35.2-85.849ZM374.334,685.611h0a286.532,286.532,0,0,0,42.074-188.317,451.492,451.492,0,0,1-24.8,96.187,497.757,497.757,0,0,0-17.274,91.607Zm39.26,342.675h0C433.224,944.2,457.63,861.3,481.121,778.2a232.289,232.289,0,0,1-83.362-78.52,193.823,193.823,0,0,1-10.927-21.331l-1.178,1.9c-3.01,3.206-5.5,13.087-9.75,15.835a10.665,10.665,0,0,1-1.178,5.366,3.534,3.534,0,0,1-2.094,3.141,5.368,5.368,0,0,1-.524,1.9,923.762,923.762,0,0,1,21.266,101.749c13.087,64.844,22.64,130.867,21.135,196.824,0,7.656-.393,15.311-.851,22.967Zm-10.273-40.241h3.4c-15.311-50.515-107.311-78.52-155.077-83.231a215.93,215.93,0,0,0,151.675,83.231Zm-9.03-425.971h0a409.483,409.483,0,0,0,15.639-77.211,311.532,311.532,0,0,0-44.56,97.5c-5.824,30.623-2.094,61.965,2.29,92.523a436.688,436.688,0,0,1,7.329-45.215,414.392,414.392,0,0,1,19.63-67.92Zm-60.722,578.693h0c1.9-44.625-8.7-93.766-41.747-125.436,11.189,26.173,20.023,53.917,28.725,81.334.851,2.356,8.375,29.445,13.087,52.347v-8.572Zm-4.319,34.287h0c-4.842-49.86-22.9-97.758-39.26-144.608a87.165,87.165,0,0,0-5.431-12.694,288.5,288.5,0,0,0,12.171,90.822,268.275,268.275,0,0,0,32.717,66.219ZM290.775,413.6h0a220.838,220.838,0,0,0,20.35-143.953,371.2,371.2,0,0,1-34.811,70.6h0a27.612,27.612,0,0,0-2.159,8.441,269.587,269.587,0,0,0-1.57,67.331,242.094,242.094,0,0,0,3.01,25.061,234.975,234.975,0,0,0,15.05-27.482Zm18.976-160.312h0a276.716,276.716,0,0,0,13.937-60.264c-35.072,41.55-55.095,93.112-71.977,143.953-3.337,10.4-6.543,20.873-8.964,31.473a184.194,184.194,0,0,0,26.893-32.717,14.59,14.59,0,0,1,2.094-3.141,372.316,372.316,0,0,0,36.577-75.706,4.057,4.057,0,0,1,1.309-3.6ZM288.027,723.5h0c24.145,0,49.991-1.636,71.322-14a280.185,280.185,0,0,0-113.2-31.473c-36.839-5.235-74.725-10.535-111.237-3.4,36.708,24.8,109.143,47.635,153.441,48.879Zm-38.148,416.222h0c13.806,0,27.744.851,41.55,0-52.347-49.533-111.564-55.226-179.026-38.933,38.8,28.529,90.56,35.727,137.41,38.868ZM229.268,503.837h0c16.751,0,33.5.982,50.253.72-29.314-11.909-61.573-12.367-92.915-13.087-33.829-3.991-68.574-10.862-97.43-29.838,21.92,22.771,61.115,31.473,90.429,38.54a332.8,332.8,0,0,0,49.664,3.861Zm37.69-69.425h0a353.336,353.336,0,0,1-1.963-78.52,178.3,178.3,0,0,1-23.622,24.538v.589c8.572,17.667,17.078,35.4,25.388,53.132Zm-4.449-148.665h0a358.314,358.314,0,0,1,52.347-94.42c-53.59,35.2-81.53,100.7-76.688,164.041a714.815,714.815,0,0,1,24.341-69.621Zm-22.771,335.87h0a489.437,489.437,0,0,0,85.783-7.983C262.181,573.262,181.567,563.84,112.273,594c28.66,19.63,92.2,26.173,127.464,27.547ZM219.06,484.207h0a202.254,202.254,0,0,1,63.078,13.087,149.122,149.122,0,0,0-104.693-45.8c-28.66-.589-58.3-2.944-86.7,1.178C127.715,478.449,175.154,484.207,219.06,484.207ZM191.905,297.329h0l-1.374-2.879a2.552,2.552,0,0,1-1.178,0c-5.169-2.487-7.787-8.376-11.909-12.171a201.339,201.339,0,0,0-36.512-30.1c-18.125-12.171-39.26-17.863-60.2-23.556S40.82,215.538,20.4,213.64c5.824,37.493,56.142,65.433,90.233,73.547,26.631,5.824,53.917,11.713,81.137,10.208Zm-.393,743.716h0c-23.883-47.635-62.685-71-114.443-78.52C98.4,1006.1,145.709,1031.3,191.513,1041.045Zm32.717-664.607h0C167.564,342.806,87.408,359.229,26.948,375.2c28.071,28.4,72.631,34.876,111.237,32a189.3,189.3,0,0,0,86.568-30.754ZM68.825,19.957h0c-4.057,54.9,26.173,108.1,64.452,145.72C114.628,116.079,84.2,70.864,68.825,19.957Z" transform="translate(71.317)" fill="#efdccc" fill-rule="evenodd"/>
        <path id="Trazado_3-2" data-name="Trazado 3" d="M164.017,158.339c-24.276-2.814-9.75-36.9,9.357-34.811C198.828,128.959,185.741,162.854,164.017,158.339Z" transform="translate(838.668 684.247)" fill="#efdccc" fill-rule="evenodd"/>
        <path id="Trazado_4-2" data-name="Trazado 4" d="M168.6,159.729a11.124,11.124,0,1,1,6.543-21.135C189.339,142.847,182.272,163.262,168.6,159.729Z" transform="translate(884.996 763.275)" fill="#efdccc" fill-rule="evenodd"/>
        <path id="Trazado_5-2" data-name="Trazado 5" d="M159.54,147.176a10.208,10.208,0,0,1,20.35,0,10.208,10.208,0,0,1-20.35,0Z" transform="translate(884.499 763.788)" fill="#efdccc" fill-rule="evenodd"/>
        <path id="Trazado_6-2" data-name="Trazado 6" d="M179.037,156.016c-15.966-14.788,6.543-45.8,23.883-28.2C227.72,139.4,195.919,171.916,179.037,156.016Z" transform="translate(962.367 679.372)" fill="#efdccc" fill-rule="evenodd"/>
        <path id="Trazado_7-2" data-name="Trazado 7" d="M130.916,127.626c-12.367-5.038-6.543-27.94,6.543-26.5C154.407,104.331,147.8,133.384,130.916,127.626Z" transform="translate(688.032 560.21)" fill="#efdccc" fill-rule="evenodd"/>
        <path id="Trazado_8-2" data-name="Trazado 8" d="M150.265,129.531a17.209,17.209,0,0,1-9.946-24.21c4.515-9.422,17.013-9.553,25.781-7.852C186.646,106.105,168.717,136.924,150.265,129.531Z" transform="translate(767.422 535.665)" fill="#efdccc" fill-rule="evenodd"/>
        <path id="Trazado_9-2" data-name="Trazado 9" d="M23.582,153.812C-.3,146.091,5.719,108.6,32.088,115.468S49.167,157.15,23.582,153.812Z" transform="translate(47.79 635.445)" fill="#efdccc" fill-rule="evenodd"/>
        <path id="Trazado_10-2" data-name="Trazado 10" d="M13.809,122.8c-12.432-1.44-12.3-21.789-1.9-26.173a10.4,10.4,0,0,1,14.657,11.647A11.909,11.909,0,0,1,13.81,122.8Z" transform="translate(23.864 529.962)" fill="#efdccc" fill-rule="evenodd"/>
        <path id="Trazado_11-2" data-name="Trazado 11" d="M13.184,171.263C-1.146,169.3-4.549,149.343,6.641,141.1a14.985,14.985,0,0,1,8.572-3.337,10.927,10.927,0,0,1,7.656-1.9C41.975,140.64,32.16,174.208,13.184,171.263Z" transform="translate(0.018 752.656)" fill="#efdccc" fill-rule="evenodd"/>
        <path id="Trazado_12-2" data-name="Trazado 12" d="M26.16,143.4a10.731,10.731,0,0,1,21.4-.327,10.731,10.731,0,0,1-21.4.327Z" transform="translate(145.128 739.096)" fill="#efdccc" fill-rule="evenodd"/>
        <path id="Trazado_13-2" data-name="Trazado 13" d="M161.876,195.145a11.843,11.843,0,1,1,7.263-22.509C188.049,174.8,177.907,200.707,161.876,195.145Z" transform="translate(848.53 952.622)" fill="#efdccc" fill-rule="evenodd"/>
        <path id="Trazado_14-2" data-name="Trazado 14" d="M175.612,216.717c-21-1.374-18.649-34.222,2.552-31.343,8.245-6.543,19.172,2.29,18.845,11.647a20.35,20.35,0,0,1-21.4,19.7Z" transform="translate(892.637 1015.067)" fill="#efdccc" fill-rule="evenodd"/>
      </g>
    </g>
  </g>
</svg>
