<svg xmlns="http://www.w3.org/2000/svg" width="122" height="122" viewBox="0 0 122 122">
  <path id="iconmonstr-christmas-42" d="M55.917,122H10.167V61h45.75Zm0-91.5H0V50.833H55.917ZM66.083,122h45.75V61H66.083Zm0-91.5V50.833H122V30.5ZM88.292,0C73.312,0,64.548,17.675,61,25.417H88.17C105.926,25.417,106.115,0,88.292,0ZM84.246,18.407H73.861c3.757-5.7,7.315-9.994,11.905-9.994C91.724,8.413,92.008,18.407,84.246,18.407ZM33.83,25.417H61C57.452,17.675,48.688,0,33.708,0,15.885,0,16.073,25.417,33.83,25.417Zm2.4-17c4.59,0,8.149,4.3,11.905,9.994H37.754c-7.762,0-7.478-9.994-1.52-9.994Z" fill="#25567b"/>
</svg>
