<?xml version="1.0" encoding="utf-8"?>
<!-- Generator: Adobe Illustrator 25.1.0, SVG Export Plug-In . SVG Version: 6.00 Build 0)  -->
<svg version="1.1" id="Capa_1" xmlns="http://www.w3.org/2000/svg" xmlns:xlink="http://www.w3.org/1999/xlink" x="0px" y="0px"
	 viewBox="0 0 789.2 615" style="enable-background:new 0 0 789.2 615;" xml:space="preserve">
<style type="text/css">
	.st0{enable-background:new    ;}
	.st1{fill:#FFFFFF;}
</style>
<g id="Grupo_17" transform="translate(-261 -222.495)">
	<g class="st0">
		<path class="st1" d="M522.9,292.9c-4.5-0.2-9.3-0.2-13.9-0.2c-123.3,0-211.5,51.9-215.3,83.9c-1.9,15.3,23.9,23.7,25.8,24.6
			c0,0-0.2,0.2-1,0.2c-16-0.2-43.3-7.6-42.8-28.7c1.4-51.6,111.6-89.6,221.3-89.6c5.3,0,10.3,0,15.5,0.2
			c50.4,1.7,99.7,14.3,118.1,24.4c3.3,1.7,1.4,3.1-1.2,2.2C625.5,308,580.8,294.8,522.9,292.9z M421.4,354.6
			c11.2-14.1,20.3-23.7,27-30.1c6.9-6.7,12.4-10.8,16.7-10.8c8.6,0,18.6,6.7,20.8,16.7c-1.7-2.2-3.8-2.9-5.7-2.9
			c-5.5,0-16,8.6-29.4,24.4C410.1,400.2,343,502.8,344.9,518.5c5.5-0.2,11-2.4,18.2-6.9c-0.5,4.5-17,16.5-23.4,16.7
			c-4.1,0.2-8.4-2.4-8.8-9.1C329.1,496.6,380.2,407.2,421.4,354.6z"/>
		<path class="st1" d="M488,435.8c-7.2,7.2-53.8,47.3-63.8,47.3c-0.5,0-1.7-0.5-2.2-0.7c-4.3-2.2-10.5-11.2-10.5-16
			c0-26.1,54.7-79.3,98.7-79.3c9.1,0,21,3.8,21,15.1c0,4.1-2.2,8.1-4.5,11.2c-0.5,0.2-1,0-0.7-0.2c1.2-2.2,2.6-5,2.6-8.6
			c0-7.2-4.5-10.8-11.7-10.3c-13.9,0.7-31.3,10.8-46.8,23.9c-22.7,19.4-40.6,49.5-38.5,50.7c0.5,0.2,1,0.2,1.7,0
			c7.9-2.6,41.3-26.8,53.8-37.3c4.3-3.8,19.8-18.9,25.8-22.2c4.8-2.4,12.9,10.8,12,13.6c-1.2-2.4-22.7,23.7-29.9,39
			c-1.4,3.3-2.4,6.2-2.4,8.1c15.1-4.3,49.2-37,64.1-50.9c1.2-1.2,2.4,0.7,1.7,1.4c-20.8,22.7-59.7,62.6-74.1,62.6
			c-1.2,0-2.4-0.5-4.1-1.4c-3.3-1.9-7.9-6.9-7.9-11.2c0-2.4,1-5.3,1.9-8.8C477,452.8,483.5,441.8,488,435.8z"/>
		<path class="st1" d="M605.6,470.3c15.1-4.1,49.2-36.8,64.5-51.1c1.4-1.2,2.6,0.7,1.9,1.4c-20.8,22.7-59.8,62.1-74.1,62.1
			c-2.4,0-5-2.2-7.4-5c-2.6-3.1-4.3-6.7-4.3-9.3c0-13.6,27.7-53.5,40.2-64.8c-19.6,8.8-54.7,37.8-72.4,56.9c-3.1,3.1-6,6.7-8.6,10
			c-6.5,7.6-8.1,14.1-4.5,15.8c-7.2,1.7-12.9-6-14.8-12.9c-0.5-1.7,0.7-8.1,6.7-19.1c5.7-11.2,14.8-25.3,22.7-36.3
			c8.6-12.2,19.1-24.9,25.3-29.6c1-1,2.4-1.2,3.1-1.2c6,0,15.1,9.3,15.1,15.3c0,1-1-0.2-2.9-0.5c-3.1-0.2-12,9.8-19.1,19.1
			c-11.2,14.8-23.7,32.5-27.2,39.2c2.6-3.8,7.2-8.6,12.2-13.4c26.8-26.3,68.8-58.6,77-58.6c5.7,0,13.4,12.9,10.3,15.5
			C643.1,408.6,606.1,459,605.6,470.3z"/>
		<path class="st1" d="M646,482.9c-3.8-1.2-9.8-7.2-9.8-11.5c0-13.9,34.7-66,50-78.2c1.2-1.2,2.6-1.4,3.6-1.4
			c5.5,0,15.1,9.6,15.1,15.5c0,1-1.2-0.2-3.1-0.5c-9.8-1-42.5,53.5-45.4,63.3c14.6-3.8,49.5-37,64.1-51.1c1.7-1.2,2.9,0.7,2.2,1.4
			c-20.8,22.5-58.8,61.4-73.6,62.6C647.9,483.2,647.2,483.2,646,482.9z M725.8,363c2.2,2.4,3.6,6,2.6,6c-0.5,0-2.4-1-5,0.2
			c-4.1,1.7-15.1,11.5-17.9,15.5c-3.3,4.3-8.4-0.7-8.6-5c-0.2-6.9,8.8-22.5,15.1-24.4C717.5,354.6,722.7,359.4,725.8,363z"/>
		<path class="st1" d="M765,435.8c-7.2,7.2-53.8,47.3-63.8,47.3c-0.5,0-1.7-0.5-2.2-0.7c-4.3-2.2-10.5-11.2-10.5-16
			c0-26.1,54.7-79.3,98.7-79.3c9.1,0,21,3.8,21,15.1c0,4.1-2.2,8.1-4.5,11.2c-0.5,0.2-1,0-0.7-0.2c1.2-2.2,2.6-5,2.6-8.6
			c0-7.2-4.5-10.8-11.7-10.3c-13.9,0.7-31.3,10.8-46.8,23.9c-22.7,19.4-40.6,49.5-38.5,50.7c0.5,0.2,1,0.2,1.7,0
			c7.9-2.6,41.3-26.8,53.8-37.3c4.3-3.8,19.8-18.9,25.8-22.2c4.8-2.4,12.9,10.8,12,13.6c-1.2-2.4-22.7,23.7-29.9,39
			c-1.4,3.3-2.4,6.2-2.4,8.1c15.1-4.3,49.2-37,64.1-50.9c1.2-1.2,2.4,0.7,1.7,1.4c-20.8,22.7-59.8,62.6-74.1,62.6
			c-1.2,0-2.4-0.5-4.1-1.4c-3.3-1.9-7.9-6.9-7.9-11.2c0-2.4,1-5.3,1.9-8.8C754,452.8,760.5,441.8,765,435.8z"/>
	</g>
	<g class="st0">
		<path class="st1" d="M495.3,692c-18.6,0-30.6-5-30.6-13.9c0-12.9,34.7-32,40.6-32c0.2,0,0.5,0,0.7,0.2
			c-7.4,4.3-32.5,19.8-32.5,30.4c0,1.2,1.4,2.6,6,2.6c7.2,0,15.8-1,25.8-3.1c40.6-62.4,104.2-134.8,122.4-134.8
			c8.6,0,18.2,8.4,19.6,18.2c-1.9-2.6-4.5-3.3-6.7-3.3c-14.1,0-65.5,57.8-106.4,112.3c72.9-22.7,172.3-75.5,172.3-113.8
			c0-22.7-30.8-35.4-73.1-35.4c-84.4,0-191.7,71.7-191.7,102.8c0,9.8,11.5,15.8,17.7,16.3c0,0,0,0.2-3.8,0.2
			c-17,0-30.1-4.8-30.1-22.7c0-32.5,86-103.5,209.6-103.5c25.8,0,83.2,10,83.2,49.2c0,62.9-134.1,115.4-199.3,127.6
			c-22.5,31.3-39,58.8-39,68.6c0,4.5-0.2,8.1,4.1,8.8c-1.2,0.5-2.9,0.7-3.8,0.7c-6.5,0-10.5-6-10.5-14.8
			C469.8,739.8,480,717.3,495.3,692z"/>
		<path class="st1" d="M714.5,667.9c-7.2,7.2-53.8,47.3-63.8,47.3c-0.5,0-1.7-0.5-2.2-0.7c-4.3-2.2-10.5-11.2-10.5-16
			c0-26.1,54.7-79.3,98.7-79.3c9.1,0,21,3.8,21,15.1c0,4.1-2.2,8.1-4.5,11.2c-0.5,0.2-1,0-0.7-0.2c1.2-2.2,2.6-5,2.6-8.6
			c0-7.2-4.5-10.8-11.7-10.3c-13.9,0.7-31.3,10.8-46.8,23.9c-22.7,19.4-40.6,49.5-38.5,50.7c0.5,0.2,1,0.2,1.7,0
			c7.9-2.6,41.3-26.8,53.8-37.3c4.3-3.8,19.8-18.9,25.8-22.2c4.8-2.4,12.9,10.8,12,13.6c-1.2-2.4-22.7,23.7-29.9,39
			c-1.4,3.3-2.4,6.2-2.4,8.1c15.1-4.3,49.2-37,64.1-50.9c1.2-1.2,2.4,0.7,1.7,1.4c-20.8,22.7-59.8,62.6-74.1,62.6
			c-1.2,0-2.4-0.5-4.1-1.4c-3.3-1.9-7.9-6.9-7.9-11.2c0-2.4,1-5.3,1.9-8.8C703.5,684.8,710,673.8,714.5,667.9z"/>
		<path class="st1" d="M853.4,623.2c-43.3,0-93.2,80.5-79.8,86.3c13.4,5.5,47.6-32.7,63.6-57.1c-1.2-2.2-3.6-9.3-2.6-11.7
			c0.7-2.4,7.9-9.6,11-9.8c2.4-0.2,5,1.7,5.5,2.4c4.5,7.4,10.3,12.9,19.8,12.2c16-1.4,24.9-10.8,27.5-10.5
			c-1.2,3.3-10.8,11.2-22.5,15.1c-5.3,1.7-10.3,2.2-14.1,2.2c-3.6,0-6-0.5-7.2-1c-6.5,31.8-55.9,66.2-81.3,64.8
			c-11-0.7-18.2-9.8-18.2-18.9c0-39,52.3-77.9,90.1-77.9c9.1,0,12.9,2.6,14.6,4.1c1.2,0.7,0.5,0.7-0.5,0.7
			C856.9,623.6,855,623.2,853.4,623.2z"/>
		<path class="st1" d="M932.2,564.4c7.2-9.3,13.9-17,19.8-21.7c3.6-2.9,6.7-4.8,8.8-4.8c13.4-0.7,22.9,13.1,18.4,10.5
			c-8.4-3.8-23.9,18.6-34.4,31.5c-10.3,13.1-20.1,27.2-32,44.7c-20.8,31.5-38.7,61.9-44.5,77.2c10.3,1.2,50-37.8,64.1-50.7
			c1.4-1.2,2.4,0.7,1.7,1.4c-11.7,13.4-53.3,56.9-67.6,62.1c-3.1,1.2-5.5,0.2-7.6-1c-1.9-1-7.2-6-8.6-9.6c-0.2-0.5-0.7-1-0.7-3.6
			c0-7.2,11-30.4,40.2-76C904.5,601.4,919.8,580.6,932.2,564.4z"/>
		<path class="st1" d="M978.6,667.9c-7.2,7.2-53.8,47.3-63.8,47.3c-0.5,0-1.7-0.5-2.2-0.7c-4.3-2.2-10.5-11.2-10.5-16
			c0-26.1,54.7-79.3,98.7-79.3c9.1,0,21,3.8,21,15.1c0,4.1-2.2,8.1-4.5,11.2c-0.5,0.2-1,0-0.7-0.2c1.2-2.2,2.6-5,2.6-8.6
			c0-7.2-4.5-10.8-11.7-10.3c-13.9,0.7-31.3,10.8-46.8,23.9c-22.7,19.4-40.6,49.5-38.5,50.7c0.5,0.2,1,0.2,1.7,0
			c7.9-2.6,41.3-26.8,53.8-37.3c4.3-3.8,19.8-18.9,25.8-22.2c4.8-2.4,12.9,10.8,12,13.6c-1.2-2.4-22.7,23.7-29.9,39
			c-1.4,3.3-2.4,6.2-2.4,8.1c15.1-4.3,49.2-37,64.1-50.9c1.2-1.2,2.4,0.7,1.7,1.4c-20.8,22.7-59.7,62.6-74.1,62.6
			c-1.2,0-2.4-0.5-4.1-1.4c-3.3-1.9-7.9-6.9-7.9-11.2c0-2.4,1-5.3,1.9-8.8C967.6,684.8,974,673.8,978.6,667.9z"/>
	</g>
</g>
</svg>
